# xmcd
#
# Track frame offsets: 
#        150
#        11030
#        21872
#        31340
#        43400
#        52125
#        60112
#        68375
#        79700
#        87977
#        97687
#        106830
#        114685
#        124275
#        135575
#        145415
#        156300
#        165835
#        174925
#        185467
#        197162
#        206640
#        217905
#        230885
#        241365
#        254927
#        264990
#        276377
#        285812
#
# Disc length: 3984 seconds
#
# Revision: 2
# Processed by: cddbd v1.5.2PL0 Copyright (c) Steve Scherf et al.
# Submitted via: ExactAudioCopyFreeDBPlugin 1.0
#
DISCID=9c0f8e1d
DTITLE=Mac Wiseman - 'Tis Sweet To Be Remembered
DYEAR=2003
DGENRE=Bluegrass
TTITLE0=The Meanest Blues In The World
TTITLE1=Be Good Baby
TTITLE2=I'm Waiting For Ships That Never Come In
TTITLE3=One Mint Julip
TTITLE4=Mey Mister Bluesman
TTITLE5=Step It Up And Go
TTITLE6=Sundown
TTITLE7=Gone
TTITLE8=Teenage Hangout
TTITLE9=Because We Are Young
TTITLE10=Shame, Shame, Shame
TTITLE11=I'll Still Write Your Name In The Sand
TTITLE12='Tis Sweet to Be Remembered
TTITLE13=Promise Of Things To Come
TTITLE14=Thinkin' About You
TTITLE15=Put Me In Your Pocket
TTITLE16=When The Work's All Done This Fall
TTITLE17=Beside The Still Waters
TTITLE18=How Great Thou Art
TTITLE19=Just A Closer Walk With Thee
TTITLE20=Standing Somewhere In The Shadows
TTITLE21=When God Dips His Love In My Heart
TTITLE22=Hold Fast To The Right
TTITLE23=Did You StopTo Pray This Morning
TTITLE24=Whispering Hope
TTITLE25=Will There Be Any Stars In My Crown
TTITLE26=Does Jesus Care?
TTITLE27=It Is No Secret
TTITLE28=Each Ring Of The Hammer
EXTD=
EXTT0=
EXTT1=
EXTT2=
EXTT3=
EXTT4=
EXTT5=
EXTT6=
EXTT7=
EXTT8=
EXTT9=
EXTT10=
EXTT11=
EXTT12=
EXTT13=
EXTT14=
EXTT15=
EXTT16=
EXTT17=
EXTT18=
EXTT19=
EXTT20=
EXTT21=
EXTT22=
EXTT23=
EXTT24=
EXTT25=
EXTT26=
EXTT27=
EXTT28=
PLAYORDER=
